<svg width="16" height="16" viewBox="0 0 1024 1024" xmlns="http://www.w3.org/2000/svg" fill="none">
  <path fill-rule="evenodd" clip-rule="evenodd" d="M512 0C229.23 0 0 229.23 0 512c0 226.92 146.98 419.22 350.53 486.91 25.61 4.7 34.97-11.11 34.97-24.69 0-12.19-.47-52.47-.72-95.2-142.58 30.99-172.66-59.52-172.66-59.52-23.3-59.22-56.92-74.99-56.92-74.99-46.55-31.83 3.52-31.16 3.52-31.16 51.47 3.63 78.54 52.85 78.54 52.85 45.75 78.38 119.97 55.73 149.21 42.62 4.63-33.14 17.91-55.76 32.61-68.6-113.83-12.96-233.47-56.92-233.47-253.27 0-55.94 19.98-101.67 52.76-137.51-5.28-12.92-22.86-64.99 4.94-135.56 0 0 43.03-13.77 140.96 52.53 40.88-11.36 84.7-17.04 128.27-17.22 43.54.18 87.37 5.86 128.28 17.22 97.88-66.31 140.85-52.53 140.85-52.53 27.84 70.58 10.26 122.65 5 135.56 32.83 35.84 52.73 81.57 52.73 137.51 0 196.77-119.76 240.16-233.86 252.95 18.4 15.87 34.75 47.19 34.75 95.06 0 68.67-.63 124.05-.63 140.87 0 13.65 9.29 29.59 35.12 24.57C877.96 931.12 1024 738.9 1024 512 1024 229.23 794.77 0 512 0z" fill="white"/>
</svg>
